<svg width="600" height="458" viewBox="0 0 600 458" fill="none" xmlns="http://www.w3.org/2000/svg">
<g clip-path="url(#clip0)">
<path opacity="0.1" d="M342.567 72.4299C304.769 71.1154 268.769 58.9114 234.387 45.5564C200.006 32.2015 165.963 17.4094 129.07 10.3288C105.341 5.77781 78.207 5.13518 59.086 17.8592C40.6891 30.1275 34.7438 51.2466 31.5433 70.8642C29.1429 85.6213 27.7296 101.155 34.3174 114.972C38.8903 124.564 47.0142 132.626 52.6325 141.81C72.174 173.778 58.3618 213.224 37.1908 244.414C27.2624 259.06 15.7337 273.04 8.0654 288.615C0.39713 304.19 -3.14791 322.061 3.55672 337.963C10.2088 353.737 26.0534 365.561 43.218 373.886C78.0727 390.828 119.141 395.636 159.212 398.376C247.879 404.446 337.024 401.817 425.925 399.188C458.829 398.212 491.873 397.225 524.246 392.137C542.216 389.315 560.777 384.828 573.824 374.026C590.387 360.28 594.493 337.005 583.396 319.765C564.777 290.853 513.313 283.673 500.283 252.646C493.117 235.564 500.476 216.542 510.883 200.698C533.217 166.721 570.647 136.909 572.621 98.0707C573.976 71.3958 555.982 44.6801 528.159 32.0554C498.993 18.829 458.554 20.494 437.051 42.39C414.869 64.9111 375.926 73.5983 342.567 72.4299Z" fill="#F97026"/>
<path opacity="0.1" d="M338.613 440.585C458.272 440.585 555.275 433.371 555.275 424.472C555.275 415.574 458.272 408.36 338.613 408.36C218.954 408.36 121.951 415.574 121.951 424.472C121.951 433.371 218.954 440.585 338.613 440.585Z" fill="#F97026"/>
<path d="M171.085 372.285C171.085 372.285 183.349 370.322 190.708 378.998C190.708 378.998 185.312 383.251 173.701 377.362L171.085 372.285Z" fill="#F97026"/>
<path d="M169.765 372.128C169.765 372.128 161.945 381.779 165.782 392.487C165.782 392.487 172.159 389.928 172.854 376.924L169.765 372.128Z" fill="#F97026"/>
<path d="M162.757 356.255C162.757 356.255 167.662 347.258 187.286 359.853C187.286 359.853 184.669 365.906 176.002 365.415C167.335 364.924 165.034 361.028 162.757 356.255Z" fill="#F97026"/>
<path d="M161.478 355.606C161.478 355.606 151.298 354.438 150.311 377.753C150.311 377.753 156.764 379.091 161.349 371.719C165.934 364.346 164.041 360.21 161.478 355.606Z" fill="#F97026"/>
<path d="M155.55 337.017C155.55 337.017 161.273 321.15 182.041 332.437C182.041 332.437 177.299 346.995 157.676 342.415L155.55 337.017Z" fill="#F97026"/>
<path d="M149.166 313.298C149.166 313.298 159.965 297.262 179.098 312.13C179.098 312.13 172.393 327.179 150.802 319L149.166 313.298Z" fill="#F97026"/>
<path d="M146.877 290.718C146.877 290.718 159.474 275.996 178.444 290.718C178.444 290.718 166.506 303.641 146.877 294.481V290.718Z" fill="#F97026"/>
<path d="M144.915 268.799C144.915 268.799 157.676 253.423 175.827 267.981C175.827 267.981 161.437 281.558 144.915 272.398V268.799Z" fill="#F97026"/>
<path d="M146.059 249.333C146.059 249.333 159.492 229.535 176.481 242.954C176.481 242.954 162.091 259.966 146.059 253.096V249.333Z" fill="#F97026"/>
<path d="M149.166 226.59C149.166 226.59 163.399 206.961 179.915 222.01C179.915 222.01 163.072 239.028 149.166 230.189V226.59Z" fill="#F97026"/>
<path d="M153.914 206.266C153.914 206.266 170.758 187.822 185.452 195.166C185.452 195.166 167.896 214.754 153.179 211.155L153.914 206.266Z" fill="#F97026"/>
<path d="M159.801 187.004C159.801 187.004 179.261 164.431 190.545 171.955C190.545 171.955 176.224 189.481 158.423 191.234L159.801 187.004Z" fill="#F97026"/>
<path d="M168.299 164.658C168.299 164.658 185.312 146.209 197.74 150.789C197.74 150.789 183.186 169.928 166.015 170.419L168.299 164.658Z" fill="#F97026"/>
<path d="M175.991 143.756C175.991 143.756 194.796 126.083 202.973 129.191C202.973 129.191 189.4 148.826 175.173 147.681L175.991 143.756Z" fill="#F97026"/>
<path d="M183.513 124.424C183.513 124.424 199.702 103.323 208.533 104.958C208.533 104.958 198.721 123.77 183.513 126.574V124.424Z" fill="#F97026"/>
<path d="M191.678 98.427C191.678 98.427 205.986 82.2445 213.713 82.2854C213.713 82.2854 202.418 103.901 191.088 103.702L191.678 98.427Z" fill="#F97026"/>
<path d="M196.513 81.0995L210.331 47.3966C210.331 47.3966 211.026 77.863 194.755 87.3505L196.513 81.0995Z" fill="#F97026"/>
<path d="M202.126 43.9323C202.126 43.9323 204.415 15.7969 202.944 13.5068C202.944 13.5068 212.825 36.8751 202.027 56.3642L202.126 43.9323Z" fill="#F97026"/>
<path d="M155.012 336.637C155.012 336.637 140.68 327.751 131.4 349.49C131.4 349.49 144.155 357.955 156.694 342.181L155.012 336.637Z" fill="#F97026"/>
<path d="M148.74 312.392C148.74 312.392 131.161 304.371 122.628 327.068C122.628 327.068 136.213 336.415 150.34 318.129L148.74 312.392Z" fill="#F97026"/>
<path d="M146.059 292.091C146.059 292.091 133.468 277.369 114.522 292.091C114.522 292.091 126.459 305.014 146.059 295.854V292.091Z" fill="#F97026"/>
<path d="M144.488 268.799C144.488 268.799 131.733 253.423 113.576 267.981C113.576 267.981 127.972 281.558 144.488 272.398V268.799Z" fill="#F97026"/>
<path d="M146.059 249.894C146.059 249.894 137.112 227.694 117.664 237.258C117.664 237.258 128.176 256.916 145.271 253.569L146.059 249.894Z" fill="#F97026"/>
<path d="M150.293 226.479C150.293 226.479 141.405 203.923 121.676 214.386C121.676 214.386 133.754 235.061 149.417 229.967L150.293 226.479Z" fill="#F97026"/>
<path d="M155.807 206.382C155.807 206.382 152.303 181.653 135.95 179.439C135.95 179.439 139.413 205.518 153.599 210.84L155.807 206.382Z" fill="#F97026"/>
<path d="M160.216 187.045C160.216 187.045 158.849 157.251 145.329 156.217C145.329 156.217 145.785 178.831 158.692 191.269L160.216 187.045Z" fill="#F97026"/>
<path d="M169.701 163.806C169.701 163.806 165.665 139.029 152.764 135.997C152.764 135.997 154.364 159.997 168.428 169.881L169.701 163.806Z" fill="#F97026"/>
<path d="M177.521 143.931C177.521 143.931 177.381 118.126 169.502 114.329C169.502 114.329 164.608 137.697 175.237 147.226L177.521 143.931Z" fill="#F97026"/>
<path d="M184.114 124.161C184.114 124.161 183.011 97.5858 174.846 93.841C174.846 93.841 172.048 114.872 182.888 125.902L184.114 124.161Z" fill="#F97026"/>
<path d="M192.816 100.542C192.816 100.542 192.764 78.9262 186.941 73.8612C186.941 73.8612 181.142 97.539 189.774 104.894L192.816 100.542Z" fill="#F97026"/>
<path d="M195.824 80.0246L190.159 44.0433C190.159 44.0433 182.456 73.5223 196.099 86.5092L195.824 80.0246Z" fill="#F97026"/>
<path d="M196.934 44.277C196.934 44.277 182.38 20.0909 182.678 17.4035C182.678 17.4035 184.225 42.7522 202.535 55.3769L196.934 44.277Z" fill="#F97026"/>
<path d="M198.639 37.1321C198.639 37.1321 184.903 2.78082 178.689 -0.0116882C178.689 -0.0116882 198.312 9.96655 199.784 36.139L198.639 37.1321Z" fill="#F97026"/>
<path d="M191.012 103.907L190.077 103.615C201.67 65.805 204.561 41.6889 198.219 35.6482L198.896 34.9355C205.618 41.315 202.891 65.1623 191.012 103.907Z" fill="#444053"/>
<path d="M159.095 192.42L157.705 191.929C158.931 188.465 160.263 184.948 161.653 181.484C173.754 151.298 184.05 123.256 190.656 101.704L191.865 101.12C185.247 122.672 175.132 151.823 163.019 182.033C161.635 185.48 160.315 188.973 159.095 192.42Z" fill="#444053"/>
<path d="M188.343 400.59C188.156 400.38 169.362 379.22 156.268 343.081C148.589 321.929 144.312 299.692 143.595 277.2C142.701 249.082 148.594 217.681 158.703 189.166L159.801 190.451C137.118 254.457 146.129 309.308 158.084 342.333C171.044 378.139 189.622 399.071 189.803 399.281L188.343 400.59Z" fill="#444053"/>
<path d="M106.456 395.975C106.456 395.975 84.2342 394.637 86.8565 410.212C86.8565 410.212 86.3367 412.964 88.8305 414.214C88.8305 414.214 88.8655 413.045 91.1082 413.448C91.9048 413.583 92.7144 413.622 93.5202 413.565C94.6111 413.492 95.6484 413.065 96.4754 412.35C96.4754 412.35 102.719 409.768 105.148 399.556C105.148 399.556 106.947 397.33 106.871 396.758L103.122 398.358C103.122 398.358 104.406 401.063 103.396 403.313C103.396 403.313 103.273 398.458 102.555 398.569C102.409 398.569 100.604 399.509 100.604 399.509C100.604 399.509 102.812 404.224 101.148 407.647C101.148 407.647 101.778 401.84 99.9212 399.848L97.2814 401.39C97.2814 401.39 99.8569 406.257 98.1107 410.229C98.1107 410.229 98.5545 404.136 96.7265 401.764L94.332 403.634C94.332 403.634 96.7499 408.43 95.2782 411.725C95.2782 411.725 95.0854 404.633 93.8122 404.095C93.8122 404.095 91.7214 405.941 91.4002 406.701C91.4002 406.701 93.0588 410.206 92.031 412.023C92.031 412.023 91.4002 407.297 90.8629 407.273C90.8629 407.273 88.7779 410.405 88.5618 412.531C88.6628 410.549 89.281 408.627 90.3548 406.958C89.1531 407.185 88.0445 407.76 87.166 408.611C87.166 408.611 87.4872 406.397 90.8687 406.204C90.8687 406.204 92.6208 403.827 93.053 403.681C93.053 403.681 89.689 403.4 87.6507 404.306C87.6507 404.306 89.4437 402.22 93.6721 403.137L96.0082 401.209C96.0082 401.209 91.5813 400.625 89.7007 401.274C89.7007 401.274 91.8616 399.428 96.6448 400.771L99.2145 399.235C99.2145 399.235 95.4417 398.423 93.1873 398.715C93.1873 398.715 95.5643 397.435 99.9679 398.82L101.808 397.996C101.808 397.996 99.0393 397.453 98.2333 397.365C97.4274 397.278 97.3748 397.056 97.3748 397.056C99.128 396.764 100.928 396.966 102.573 397.64C102.573 397.64 106.521 396.22 106.456 395.975Z" fill="#F97026"/>
<path d="M41.863 403.202C41.863 403.202 19.67 401.864 22.2689 417.439C22.2689 417.439 21.7433 420.19 24.2371 421.44C24.2371 421.44 24.278 420.272 26.5207 420.675C27.3169 420.812 28.1269 420.851 28.9327 420.792C30.0221 420.72 31.0579 420.293 31.882 419.577C31.882 419.577 38.1311 416.995 40.5607 406.783C40.5607 406.783 42.3536 404.557 42.3127 403.984L38.5633 405.585C38.5633 405.585 39.8482 408.29 38.8378 410.539C38.8378 410.539 38.7151 405.684 37.9968 405.795C37.8508 405.795 36.0461 406.736 36.0461 406.736C36.0461 406.736 38.2538 411.45 36.5893 414.874C36.5893 414.874 37.22 409.067 35.357 407.075L32.7172 408.617C32.7172 408.617 35.2927 413.484 33.5465 417.456C33.5465 417.456 33.9962 411.363 32.1624 408.991L29.7737 410.86C29.7737 410.86 32.1916 415.657 30.7198 418.952C30.7198 418.952 30.5271 411.859 29.2539 411.322C29.2539 411.322 27.1631 413.168 26.8419 413.928C26.8419 413.928 28.5005 417.433 27.4726 419.25C27.4726 419.25 26.8419 414.523 26.3046 414.5C26.3046 414.5 24.2254 417.631 24.0035 419.758C24.1078 417.775 24.7279 415.854 25.8023 414.185C24.5991 414.413 23.4888 414.987 22.6077 415.838C22.6077 415.838 22.9347 413.624 26.3163 413.431C26.3163 413.431 28.0683 411.053 28.5005 410.913C28.5005 410.913 25.1365 410.627 23.0983 411.532C23.0983 411.532 24.8912 409.447 29.1196 410.364L31.4557 408.436C31.4557 408.436 27.0288 407.852 25.1482 408.5C25.1482 408.5 27.3091 406.654 32.0923 407.998L34.662 406.461C34.662 406.461 30.8833 405.649 28.6348 405.941C28.6348 405.941 31.0118 404.662 35.4154 406.047L37.2551 405.223C37.2551 405.223 34.4868 404.68 33.675 404.592C32.8632 404.504 32.8223 404.282 32.8223 404.282C34.5756 403.994 36.3744 404.196 38.0201 404.866C38.0201 404.866 41.9098 403.447 41.863 403.202Z" fill="#F97026"/>
<path d="M77.8625 420.167C77.8625 420.167 55.6694 418.829 58.2625 434.404C58.2625 434.404 57.7427 437.156 60.2365 438.406C60.2365 438.406 60.2774 437.237 62.5142 437.64C63.3128 437.775 64.1244 437.814 64.9321 437.757C66.0209 437.683 67.056 437.256 67.8814 436.542C67.8814 436.542 74.1247 433.96 76.5542 423.748C76.5542 423.748 78.353 421.522 78.3063 420.95L74.5569 422.55C74.5569 422.55 75.8359 425.255 74.8314 427.504C74.8314 427.504 74.7087 422.65 73.9845 422.761C73.8385 422.761 72.0397 423.701 72.0397 423.701C72.0397 423.701 74.2415 428.41 72.577 431.839C72.577 431.839 73.2078 426.032 71.3506 424.04L68.7108 425.582C68.7108 425.582 71.2863 430.449 69.5401 434.421C69.5401 434.421 69.9898 428.328 68.1559 425.956L65.7614 427.826C65.7614 427.826 68.1851 432.622 66.7075 435.917C66.7075 435.917 66.5148 428.825 65.2475 428.287C65.2475 428.287 63.1508 430.133 62.8355 430.893C62.8355 430.893 64.4941 434.398 63.4604 436.215C63.4604 436.215 62.8296 431.489 62.2923 431.465C62.2923 431.465 60.2073 434.597 59.9912 436.723C60.0922 434.741 60.7104 432.819 61.7842 431.15C60.5826 431.377 59.4739 431.952 58.5954 432.803C58.5954 432.803 58.9166 430.589 62.304 430.396C62.304 430.396 64.021 428.019 64.4824 427.873C64.4824 427.873 61.1184 427.592 59.0802 428.498C59.0802 428.498 60.879 426.412 65.1015 427.358L67.4376 425.431C67.4376 425.431 63.0107 424.846 61.1301 425.495C61.1301 425.495 63.2968 423.649 68.0742 424.992L70.6497 423.456C70.6497 423.456 66.8944 422.661 64.6401 422.954C64.6401 422.954 67.0112 421.674 71.4207 423.059L73.2545 422.235C73.2545 422.235 70.4921 421.692 69.6803 421.604C68.8685 421.516 68.8276 421.294 68.8276 421.294C70.5808 421.003 72.3806 421.205 74.0254 421.879C74.0254 421.879 77.9267 420.412 77.8625 420.167Z" fill="#F97026"/>
<path opacity="0.1" d="M60.5402 442.7C69.2265 442.7 76.2681 441.51 76.2681 440.042C76.2681 438.573 69.2265 437.383 60.5402 437.383C51.854 437.383 44.8124 438.573 44.8124 440.042C44.8124 441.51 51.854 442.7 60.5402 442.7Z" fill="#F97026"/>
<path opacity="0.1" d="M559.404 442.7C568.091 442.7 575.132 441.51 575.132 440.042C575.132 438.573 568.091 437.383 559.404 437.383C550.718 437.383 543.676 438.573 543.676 440.042C543.676 441.51 550.718 442.7 559.404 442.7Z" fill="#F97026"/>
<path opacity="0.1" d="M408.79 458C417.476 458 424.517 456.81 424.517 455.342C424.517 453.874 417.476 452.684 408.79 452.684C400.103 452.684 393.062 453.874 393.062 455.342C393.062 456.81 400.103 458 408.79 458Z" fill="#F97026"/>
<path opacity="0.1" d="M584.278 419.659C592.964 419.659 600.006 418.468 600.006 417C600.006 415.532 592.964 414.342 584.278 414.342C575.592 414.342 568.55 415.532 568.55 417C568.55 418.468 575.592 419.659 584.278 419.659Z" fill="#F97026"/>
<path opacity="0.1" d="M91.1491 417.999C99.8353 417.999 106.877 416.809 106.877 415.341C106.877 413.873 99.8353 412.683 91.1491 412.683C82.4628 412.683 75.4212 413.873 75.4212 415.341C75.4212 416.809 82.4628 417.999 91.1491 417.999Z" fill="#F97026"/>
<path opacity="0.1" d="M26.5382 425.46C35.2244 425.46 42.266 424.27 42.266 422.802C42.266 421.334 35.2244 420.143 26.5382 420.143C17.8519 420.143 10.8103 421.334 10.8103 422.802C10.8103 424.27 17.8519 425.46 26.5382 425.46Z" fill="#F97026"/>
<path d="M423.005 46.5846H182.532C179.371 46.5846 176.808 49.1479 176.808 52.3098V415.557C176.808 418.719 179.371 421.283 182.532 421.283H423.005C426.166 421.283 428.728 418.719 428.728 415.557V52.3098C428.728 49.1479 426.166 46.5846 423.005 46.5846Z" fill="#383634"/>
<path opacity="0.1" d="M391.73 78.7919H216.925C207.503 78.7919 199.866 86.432 199.866 95.8565V135.39C199.866 144.814 207.503 152.454 216.925 152.454H391.73C401.152 152.454 408.79 144.814 408.79 135.39V95.8565C408.79 86.432 401.152 78.7919 391.73 78.7919Z" fill="black"/>
<path d="M401.01 80.229H207.166C203.876 80.229 201.209 82.8969 201.209 86.1879V145.514C201.209 148.805 203.876 151.473 207.166 151.473H401.01C404.3 151.473 406.967 148.805 406.967 145.514V86.1879C406.967 82.8969 404.3 80.229 401.01 80.229Z" fill="#E6E8EC"/>
<path opacity="0.1" d="M242.389 183.137H213.444C209.964 183.137 207.143 185.959 207.143 189.44V223.009C207.143 226.49 209.964 229.313 213.444 229.313H242.389C245.869 229.313 248.69 226.49 248.69 223.009V189.44C248.69 185.959 245.869 183.137 242.389 183.137Z" fill="black"/>
<path opacity="0.1" d="M293.17 183.137H264.225C260.745 183.137 257.924 185.959 257.924 189.44V223.009C257.924 226.49 260.745 229.313 264.225 229.313H293.17C296.65 229.313 299.471 226.49 299.471 223.009V189.44C299.471 185.959 296.65 183.137 293.17 183.137Z" fill="black"/>
<path opacity="0.1" d="M343.951 183.137H315.007C311.526 183.137 308.705 185.959 308.705 189.44V223.009C308.705 226.49 311.526 229.313 315.007 229.313H343.951C347.431 229.313 350.253 226.49 350.253 223.009V189.44C350.253 185.959 347.431 183.137 343.951 183.137Z" fill="black"/>
<path opacity="0.1" d="M384.19 184.118H376.329C367.027 184.118 359.486 191.662 359.486 200.967V213.446C359.486 222.751 367.027 230.294 376.329 230.294H384.19C393.493 230.294 401.034 222.751 401.034 213.446V200.967C401.034 191.662 393.493 184.118 384.19 184.118Z" fill="black"/>
<path d="M394.732 183.137H365.788C362.307 183.137 359.486 185.959 359.486 189.44V223.009C359.486 226.49 362.307 229.313 365.788 229.313H394.732C398.212 229.313 401.034 226.49 401.034 223.009V189.44C401.034 185.959 398.212 183.137 394.732 183.137Z" fill="#F97026"/>
<path opacity="0.1" d="M242.389 233.934H213.444C209.964 233.934 207.143 236.756 207.143 240.237V273.806C207.143 277.287 209.964 280.109 213.444 280.109H242.389C245.869 280.109 248.69 277.287 248.69 273.806V240.237C248.69 236.756 245.869 233.934 242.389 233.934Z" fill="black"/>
<path opacity="0.1" d="M293.17 233.934H264.225C260.745 233.934 257.924 236.756 257.924 240.237V273.806C257.924 277.287 260.745 280.109 264.225 280.109H293.17C296.65 280.109 299.471 277.287 299.471 273.806V240.237C299.471 236.756 296.65 233.934 293.17 233.934Z" fill="black"/>
<path opacity="0.1" d="M343.951 233.934H315.007C311.526 233.934 308.705 236.756 308.705 240.237V273.806C308.705 277.287 311.526 280.109 315.007 280.109H343.951C347.431 280.109 350.253 277.287 350.253 273.806V240.237C350.253 236.756 347.431 233.934 343.951 233.934Z" fill="black"/>
<path opacity="0.1" d="M242.389 290.006H213.444C209.964 290.006 207.143 292.828 207.143 296.309V329.878C207.143 333.359 209.964 336.181 213.444 336.181H242.389C245.869 336.181 248.69 333.359 248.69 329.878V296.309C248.69 292.828 245.869 290.006 242.389 290.006Z" fill="black"/>
<path opacity="0.1" d="M293.17 290.006H264.225C260.745 290.006 257.924 292.828 257.924 296.309V329.878C257.924 333.359 260.745 336.181 264.225 336.181H293.17C296.65 336.181 299.471 333.359 299.471 329.878V296.309C299.471 292.828 296.65 290.006 293.17 290.006Z" fill="black"/>
<path opacity="0.1" d="M343.951 290.006H315.007C311.526 290.006 308.705 292.828 308.705 296.309V329.878C308.705 333.359 311.526 336.181 315.007 336.181H343.951C347.431 336.181 350.253 333.359 350.253 329.878V296.309C350.253 292.828 347.431 290.006 343.951 290.006Z" fill="black"/>
<path opacity="0.1" d="M343.951 346.078H315.007C311.526 346.078 308.705 348.9 308.705 352.381V385.95C308.705 389.431 311.526 392.253 315.007 392.253H343.951C347.431 392.253 350.253 389.431 350.253 385.95V352.381C350.253 348.9 347.431 346.078 343.951 346.078Z" fill="black"/>
<path opacity="0.1" d="M384.19 234.915H376.329C367.027 234.915 359.486 242.458 359.486 251.764V264.242C359.486 273.547 367.027 281.091 376.329 281.091H384.19C393.493 281.091 401.034 273.547 401.034 264.242V251.764C401.034 242.458 393.493 234.915 384.19 234.915Z" fill="black"/>
<path d="M394.434 233.934H366.086C362.441 233.934 359.486 236.889 359.486 240.535V273.508C359.486 277.154 362.441 280.109 366.086 280.109H394.434C398.079 280.109 401.034 277.154 401.034 273.508V240.535C401.034 236.889 398.079 233.934 394.434 233.934Z" fill="#F97026"/>
<path opacity="0.2" d="M394.434 233.934H366.086C362.441 233.934 359.486 236.889 359.486 240.535V273.508C359.486 277.154 362.441 280.109 366.086 280.109H394.434C398.079 280.109 401.034 277.154 401.034 273.508V240.535C401.034 236.889 398.079 233.934 394.434 233.934Z" fill="black"/>
<path opacity="0.1" d="M293.608 346.078H213.006C209.768 346.078 207.143 348.704 207.143 351.943V386.388C207.143 389.627 209.768 392.253 213.006 392.253H293.608C296.846 392.253 299.471 389.627 299.471 386.388V351.943C299.471 348.704 296.846 346.078 293.608 346.078Z" fill="black"/>
<path opacity="0.1" d="M394.218 290.006H362.336C358.575 290.006 355.526 293.056 355.526 296.818V385.448C355.526 389.21 358.575 392.259 362.336 392.259H394.218C397.979 392.259 401.028 389.21 401.028 385.448V296.818C401.028 293.056 397.979 290.006 394.218 290.006Z" fill="black"/>
<path d="M397.728 139.029H379.542V140.998H397.728V139.029Z" fill="#F97026"/>
<path d="M371.102 139.029H352.916V140.998H371.102V139.029Z" fill="#F97026"/>
<path d="M344.471 139.029H326.284V140.998H344.471V139.029Z" fill="#F97026"/>
<path d="M317.845 139.029H299.658V140.998H317.845V139.029Z" fill="#F97026"/>
<path d="M513.868 277.229C515.742 270.92 513.868 264.61 513.868 264.61V258.657C513.868 258.657 516.011 247.02 506.445 239.554L500.102 233.957C500.102 233.957 496.545 230.902 495.512 230.709C495.319 230.667 495.124 230.638 494.928 230.621L494.741 230.51C494.196 229.578 493.731 228.6 493.351 227.589C493.761 227.642 494.179 227.6 494.571 227.467C494.963 227.333 495.318 227.111 495.611 226.818C495.84 226.554 496.02 226.252 496.143 225.924C496.51 225.1 496.575 224.101 496.884 223.225C497.156 222.515 497.551 221.858 498.052 221.286C497.988 221.391 497.918 221.49 497.86 221.601C498.759 220.479 499.933 219.521 500.78 218.341C500.948 218.107 501.102 217.863 501.241 217.611C501.206 217.663 501.159 217.71 501.118 217.763C502.286 215.887 502.643 213.615 502.981 211.424C503.145 210.679 503.157 209.908 503.016 209.157C502.852 208.659 502.641 208.178 502.386 207.72C501.007 204.875 501.031 201.294 498.829 199.021C497.17 197.321 494.659 196.801 492.294 196.509C489.928 196.217 487.441 196.048 485.408 194.809C484.841 194.379 484.213 194.035 483.545 193.787C483.209 193.67 482.843 193.673 482.509 193.797C482.176 193.921 481.895 194.157 481.717 194.465C481.675 194.647 481.591 194.817 481.472 194.961C481.366 195.021 481.248 195.056 481.126 195.063C481.005 195.07 480.883 195.049 480.771 195.002L477.623 194.161L477.658 194.319H477.576L477.693 194.815C477.755 194.804 477.818 194.815 477.873 194.846C477.927 194.877 477.969 194.926 477.991 194.985L477.483 195.767C476.509 195.75 475.546 195.552 474.644 195.183C474.639 195.234 474.639 195.285 474.644 195.335H474.598C474.539 196.223 475.55 196.801 475.859 197.637C475.983 198.002 475.983 198.399 475.859 198.764C475.733 199.103 475.533 199.411 475.275 199.664C474.16 200.768 472.729 200.552 471.444 201.247C471.333 201.295 471.234 201.366 471.153 201.456C471.072 201.545 471.012 201.652 470.977 201.767C470.926 201.854 470.911 201.956 470.936 202.054C470.987 202.188 471.079 202.302 471.199 202.381C471.573 202.683 471.983 202.938 472.419 203.14C472.291 203.257 472.168 203.374 472.051 203.496C470.421 205.154 469.226 207.19 468.574 209.423C467.922 211.655 467.833 214.014 468.315 216.289C468.796 218.565 469.834 220.685 471.335 222.461C472.836 224.237 474.754 225.614 476.916 226.467C476.963 226.713 476.998 226.964 477.033 227.227C477.033 227.256 477.033 227.274 477.033 227.303L477.068 227.642L472.828 229.447C472.189 229.442 471.564 229.255 471.026 228.909C470.488 228.562 470.06 228.07 469.791 227.49C468.804 225.451 465.318 227.49 465.318 227.49C465.318 227.49 454.682 226.695 450.717 228.658C450.717 228.658 444.369 225.994 443.475 225.813C442.581 225.632 441.244 224.925 440.619 225.106C439.994 225.287 439.188 223.938 438.739 224.037C438.289 224.136 438.114 223.149 436.683 222.793C435.252 222.436 434.715 222.886 433.108 221.286C431.502 219.685 418.444 213.375 418.444 213.375L412.58 208.55L406.325 203.572L406.214 203.777C406.173 203.631 406.132 203.479 406.091 203.315C405.469 200.836 404.689 198.399 403.755 196.019C403.352 195.055 403.171 193.84 402.628 194.482C402.295 194.868 401.729 194.021 400.876 193.448C400.695 193.323 400.489 193.24 400.272 193.205C400.055 193.17 399.833 193.184 399.622 193.245C399.411 193.307 399.217 193.415 399.053 193.561C398.889 193.707 398.76 193.888 398.674 194.091C393.803 201.732 392.057 202.27 394.878 205.08C397.395 207.574 399.066 209.753 401.116 210.443L401.361 210.519C401.317 210.53 401.27 210.53 401.226 210.519L413.117 224.738C413.117 224.738 421.697 232.204 427.601 234.6C433.506 236.995 433.05 237.713 433.05 237.713C433.05 237.713 450.933 246.774 453.701 246.599C456.47 246.424 455.938 265.171 454.776 268.215C453.614 271.259 451.739 293.096 451.739 293.096C451.739 293.096 449.946 297.717 451.827 300.913C451.827 300.913 452.241 307.035 451.867 308.508C450.238 311.02 447.914 315.284 447.534 319.672C447.534 319.905 447.487 320.122 447.464 320.349C447.345 320.488 447.202 320.604 447.043 320.694L447.441 320.577C447.272 322.406 446.879 324.207 446.272 325.94C445.327 328.374 444.826 330.959 444.795 333.57V347.684L443.627 356.447C443.627 356.447 442.196 363.078 443.627 364.626C444.23 365.398 444.511 366.374 444.409 367.349C444.35 368.48 444.67 369.599 445.32 370.527C445.569 370.798 445.751 371.124 445.852 371.478C445.954 371.831 445.972 372.204 445.905 372.566C445.431 374.102 446.605 390.454 446.605 390.454C446.605 390.454 446.261 394.958 445.788 395.198C445.315 395.437 446.605 400.409 446.605 400.409C446.605 400.409 441.775 404.44 443.008 406.572L444.24 408.465L443.913 408.786L443.714 408.991C443.342 408.776 442.907 408.694 442.482 408.757C440.964 410.311 439.341 411.757 437.623 413.086C435.445 414.658 429.517 416.936 429.517 416.936L424.845 417.316H424.757C424.757 417.316 422.52 417.106 423.776 420.57C425.031 424.034 436.256 422.971 436.256 422.971L442.809 421.937C442.809 421.937 454.49 421.995 457.836 421.253C459.232 420.944 459.588 420.196 459.471 419.442L459.436 419.407C459.276 418.689 458.948 418.018 458.479 417.45C458.455 417.413 458.427 417.378 458.397 417.345L458.607 414.95C463.565 412.093 457.205 406.473 457.205 406.473C457.205 406.473 459.384 401.735 460.499 400.199C461.615 398.662 461.615 376.024 461.615 376.024C461.615 376.024 462.199 367.845 460.663 365.953C460.636 365.336 460.778 364.724 461.072 364.182C461.366 363.64 461.802 363.187 462.333 362.874C463.437 362.12 466.772 351.739 469.388 343.122L471.035 353.275C471.035 353.275 470.679 358.136 471.748 359.555C471.949 359.823 472.092 360.129 472.168 360.455C472.245 360.781 472.253 361.119 472.192 361.448C471.938 362.811 472.02 364.214 472.431 365.538C472.557 366.105 472.862 366.618 473.301 366.998C474.253 367.471 474.312 369.16 474.668 369.516C475.024 369.873 477.232 369.014 477.349 370.317C477.415 371.461 477.415 372.608 477.349 373.752L478.067 394.842C478.067 394.842 476.899 396.594 476.636 401.268C476.537 403.26 476.163 404.393 475.777 405.042C475.564 405.39 475.465 405.796 475.497 406.204C475.528 406.611 475.688 406.998 475.953 407.308L476.157 407.548L475.275 408.226C474.921 408.501 474.673 408.891 474.572 409.328C474.472 409.766 474.527 410.225 474.726 410.627C474.442 410.874 474.238 411.201 474.141 411.566C474.044 411.93 474.059 412.315 474.183 412.671C474.219 412.789 474.27 412.9 474.335 413.004C473.665 413.109 473.043 413.417 472.554 413.887C471.673 415.097 470.611 416.165 469.406 417.053C467.657 418.394 465.982 419.829 464.389 421.353C463.638 422.375 462.631 423.181 461.469 423.69C461.184 423.805 460.889 423.893 460.587 423.952C458.251 424.432 458.981 426.874 460.885 427.277C462.789 427.68 469.108 429.613 474.025 428.486C474.025 428.486 475.485 429.07 477.629 427.984C479.772 426.897 484.555 425.565 484.555 425.565C484.555 425.565 487.236 425.565 487.598 424.502C487.692 424.163 487.743 423.813 487.75 423.462L487.826 423.386L487.756 423.322C487.762 422.525 487.702 421.73 487.575 420.944C487.505 420.535 487.429 420.173 487.359 419.881C487.131 418.993 486.705 417.842 486.524 417.357C486.554 417.318 486.582 417.277 486.605 417.234C487.627 415.482 485.928 411.322 485.928 411.322C486.486 410.436 487.164 409.632 487.943 408.933C488.895 408.22 491.4 389.736 491.4 389.736C491.4 389.736 491.278 384.998 492.568 382.865C493.859 380.733 490.781 367.822 490.781 367.822C490.781 367.822 489.467 364.86 489.946 363.791C490.425 362.722 489.467 358.814 489.467 358.814V354.14C489.464 353.583 489.372 353.031 489.193 352.504C488.825 351.406 488.282 349.297 488.871 347.784C489.707 345.651 491.61 332.501 491.61 332.501C491.61 332.501 490.121 326.7 492.305 322.079C492.476 321.71 492.671 321.352 492.889 321.01C494.507 318.468 494.022 313.952 493.222 310.313C493.106 309.729 492.971 309.203 492.837 308.694C492.784 308.472 492.726 308.262 492.668 308.052L492.925 307.947C492.925 307.947 492.924 307.602 493.006 307.012C493.888 306.837 494.725 306.483 495.464 305.972C496.203 305.46 496.83 304.802 497.305 304.038C497.305 304.038 502.76 297.904 507.584 295.328C512.408 292.751 512.77 289.018 512.77 289.018C512.057 287.774 514.049 282.709 514.049 282.709L513.868 277.229ZM498.134 285.408L492.971 291.396V291.361C491.628 289.492 494.221 285.315 494.221 285.315L498.514 275.734C498.479 276.96 498.327 278.07 497.93 278.555C496.762 280.156 500.079 282.826 500.079 282.826C498.309 282.832 498.134 285.408 498.134 285.408Z" fill="url(#paint0_linear)"/>
<path d="M407.236 206.897L404.415 212.371C403.522 212.294 402.642 212.11 401.793 211.821C400.448 211.42 399.203 210.737 398.141 209.819C397.079 208.9 396.224 207.767 395.632 206.493C393.114 200.932 397.278 197.339 399.217 196.276C401.156 195.212 402.961 194.003 404.415 197.491C405.328 199.857 406.091 202.279 406.699 204.741C407.038 206.02 407.236 206.897 407.236 206.897Z" fill="#CC818C"/>
<path d="M496.82 235.371L492.317 242.077C492.317 242.077 471.041 252.231 475.106 240.325C476.893 235.067 477.103 231.229 476.782 228.571C476.782 228.541 476.782 228.524 476.782 228.495C476.362 225.171 475.112 223.728 475.112 223.728C475.112 223.728 495.851 213.107 492.761 220.368C492.131 221.878 491.88 223.519 492.031 225.147C492.286 227.493 493.047 229.755 494.262 231.778C494.992 233.058 495.849 234.262 496.82 235.371Z" fill="#CC818C"/>
<path d="M490.343 368.225C490.343 368.225 493.403 381.078 492.095 383.175C490.787 385.272 490.927 390.004 490.927 390.004C490.927 390.004 488.457 408.372 487.516 409.073C486.745 409.756 486.07 410.542 485.513 411.41C485.513 411.41 487.195 415.569 486.185 417.287C486.029 417.548 485.794 417.753 485.513 417.871C483.936 418.537 478.108 415.581 474.79 413.781C474.523 413.635 474.295 413.427 474.126 413.174C473.957 412.921 473.851 412.63 473.818 412.327C473.784 412.025 473.825 411.718 473.935 411.434C474.045 411.151 474.223 410.898 474.452 410.697C474.252 410.299 474.197 409.844 474.295 409.409C474.393 408.975 474.638 408.587 474.989 408.313L475.865 407.636L475.661 407.396C475.399 407.086 475.241 406.702 475.209 406.297C475.178 405.892 475.274 405.488 475.485 405.141C475.865 404.504 476.233 403.388 476.332 401.396C476.572 396.804 477.746 395.04 477.746 395.04L477.039 374.079C477.106 372.943 477.106 371.803 477.039 370.667C476.922 369.376 474.744 370.229 474.393 369.873C474.043 369.516 473.979 367.845 473.038 367.372C472.605 366.992 472.306 366.481 472.186 365.917C471.77 364.595 471.688 363.19 471.946 361.828C472.007 361.501 471.999 361.165 471.924 360.842C471.848 360.518 471.707 360.213 471.508 359.947C470.451 358.533 470.802 353.713 470.802 353.713L469.178 343.618C466.591 352.183 463.303 362.5 462.211 363.248C461.687 363.561 461.257 364.011 460.967 364.549C460.677 365.087 460.538 365.693 460.564 366.303C462.094 368.19 461.504 376.316 461.504 376.316C461.504 376.316 461.504 398.797 460.4 400.333C459.296 401.87 457.159 406.596 457.159 406.596C457.159 406.596 463.466 412.21 458.502 415.043H458.449C453.386 417.871 442.914 409.984 442.914 409.984L444.006 408.892L444.328 408.57L443.09 406.724C441.875 404.604 446.64 400.602 446.64 400.602C446.64 400.602 445.367 395.654 445.834 395.42C446.302 395.186 446.64 390.711 446.64 390.711C446.64 390.711 445.472 374.464 445.951 372.934C446.015 372.574 445.996 372.204 445.894 371.852C445.793 371.501 445.613 371.177 445.367 370.907C444.724 369.985 444.408 368.874 444.468 367.752C444.57 366.784 444.291 365.814 443.691 365.047C442.278 363.516 443.691 356.926 443.691 356.926L444.859 348.21V334.37C444.875 331.699 445.376 329.052 446.337 326.559C447.05 324.539 447.483 322.43 447.622 320.291C448.007 315.828 450.407 311.493 452.019 309.022C452.872 307.713 453.509 306.93 453.509 306.93L491.167 305.458C491.167 305.458 491.751 307.135 492.381 309.466C492.51 309.974 492.638 310.511 492.761 311.072C493.549 314.694 494.022 319.181 492.428 321.705C492.212 322.047 492.017 322.402 491.844 322.768C489.689 327.36 491.161 333.126 491.161 333.126C491.161 333.126 489.28 346.189 488.457 348.315C487.873 349.817 488.41 351.914 488.778 352.989C488.95 353.515 489.038 354.065 489.041 354.619V359.275C489.041 359.275 489.987 363.16 489.514 364.223C489.041 365.286 490.343 368.225 490.343 368.225Z" fill="#444053"/>
<path opacity="0.1" d="M492.078 322.079C491.859 322.418 491.664 322.771 491.494 323.136L489.374 323.019C489.578 321.927 488.135 311.686 488.135 311.686L492.405 311.446C493.193 315.062 493.672 319.549 492.078 322.079Z" fill="black"/>
<path d="M492.428 321.722C492.212 322.064 492.017 322.419 491.844 322.785L489.724 322.663C489.928 321.576 488.486 311.329 488.486 311.329L492.755 311.09C493.549 314.712 494.022 319.198 492.428 321.722Z" fill="#444053"/>
<path opacity="0.05" d="M492.428 321.722C492.212 322.064 492.017 322.419 491.844 322.785L489.724 322.663C489.928 321.576 488.486 311.329 488.486 311.329L492.755 311.09C493.549 314.712 494.022 319.198 492.428 321.722Z" fill="black"/>
<path opacity="0.1" d="M486.191 417.31C486.035 417.572 485.8 417.776 485.519 417.894C483.942 418.56 478.114 415.604 474.796 413.805C474.382 413.576 474.068 413.201 473.914 412.753C475.807 412.409 477.045 414.506 477.045 414.506C477.36 414.308 477.712 414.175 478.08 414.115C478.447 414.056 478.823 414.07 479.185 414.158C479.547 414.245 479.887 414.404 480.187 414.626C480.486 414.847 480.739 415.126 480.929 415.446C482.546 417.83 486.015 416.825 486.015 416.825L486.191 417.31Z" fill="black"/>
<path d="M487.166 424.525C486.816 425.588 484.164 425.588 484.164 425.588C484.164 425.588 479.428 426.944 477.308 428.001C475.188 429.058 473.751 428.503 473.751 428.503C468.898 429.619 462.654 427.68 460.774 427.294C458.893 426.909 458.157 424.472 460.482 423.999C460.78 423.938 461.071 423.848 461.352 423.73C462.517 423.226 463.525 422.42 464.272 421.394C465.846 419.881 467.501 418.455 469.231 417.123C470.421 416.239 471.469 415.177 472.338 413.974C475.106 411.532 477.074 414.886 477.074 414.886C477.39 414.688 477.742 414.556 478.11 414.496C478.477 414.437 478.853 414.452 479.215 414.54C479.577 414.628 479.918 414.788 480.217 415.01C480.516 415.232 480.768 415.511 480.958 415.832C482.576 418.216 486.045 417.205 486.045 417.205C486.045 417.205 486.67 418.8 486.962 419.945C487.032 420.237 487.108 420.599 487.178 421.008C487.335 422.194 487.435 423.73 487.166 424.525Z" fill="#FF748F"/>
<path d="M479.071 417.082C479.249 417.082 479.393 416.938 479.393 416.761C479.393 416.583 479.249 416.44 479.071 416.44C478.894 416.44 478.75 416.583 478.75 416.761C478.75 416.938 478.894 417.082 479.071 417.082Z" fill="#575988"/>
<path d="M476.309 419.67C476.486 419.67 476.63 419.526 476.63 419.349C476.63 419.171 476.486 419.028 476.309 419.028C476.132 419.028 475.988 419.171 475.988 419.349C475.988 419.526 476.132 419.67 476.309 419.67Z" fill="#575988"/>
<path d="M473.5 421.995C473.677 421.995 473.821 421.852 473.821 421.674C473.821 421.497 473.677 421.353 473.5 421.353C473.322 421.353 473.179 421.497 473.179 421.674C473.179 421.852 473.322 421.995 473.5 421.995Z" fill="#575988"/>
<path d="M474.954 420.956C475.131 420.956 475.275 420.812 475.275 420.634C475.275 420.457 475.131 420.313 474.954 420.313C474.777 420.313 474.633 420.457 474.633 420.634C474.633 420.812 474.777 420.956 474.954 420.956Z" fill="#575988"/>
<path d="M477.752 418.297C477.929 418.297 478.073 418.154 478.073 417.976C478.073 417.799 477.929 417.655 477.752 417.655C477.574 417.655 477.43 417.799 477.43 417.976C477.43 418.154 477.574 418.297 477.752 418.297Z" fill="#575988"/>
<path d="M487.166 424.525C486.816 425.588 484.164 425.588 484.164 425.588C484.164 425.588 479.428 426.944 477.308 428.001C475.188 429.058 473.751 428.503 473.751 428.503C468.898 429.619 462.654 427.68 460.774 427.294C458.893 426.909 458.157 424.472 460.482 423.999C460.78 423.938 461.071 423.848 461.352 423.73C463.405 424.437 465.549 424.845 467.718 424.94C472.513 425.144 476.309 424.94 476.309 424.94L481.162 423.38C482.081 422.822 483.101 422.453 484.164 422.293C485.239 422.074 486.255 421.632 487.149 420.996C487.335 422.194 487.435 423.73 487.166 424.525Z" fill="#DCE6F2"/>
<path opacity="0.5" d="M475.088 427.569C474.818 427.571 474.548 427.545 474.282 427.493L474.352 427.148C475.345 427.3 476.36 427.158 477.273 426.739C477.705 426.57 478.137 426.365 478.557 426.155C478.978 425.945 479.568 425.682 480.093 425.489L480.572 425.325C480.835 425.232 481.104 425.144 481.361 425.033C481.507 424.975 481.653 424.905 481.793 424.835C482.138 424.654 482.502 424.515 482.879 424.42C483.072 424.384 483.267 424.358 483.463 424.344C483.643 424.332 483.823 424.31 484.001 424.28C484.354 424.19 484.697 424.063 485.023 423.9C485.371 423.72 485.74 423.583 486.121 423.491L486.378 423.45C486.655 423.443 486.922 423.344 487.137 423.17L487.4 423.409C487.132 423.644 486.792 423.782 486.436 423.801L486.191 423.841C485.836 423.928 485.494 424.056 485.169 424.221C484.818 424.395 484.45 424.53 484.071 424.624C483.878 424.662 483.683 424.686 483.487 424.694C483.303 424.708 483.119 424.731 482.938 424.764C482.587 424.855 482.248 424.987 481.927 425.156L481.483 425.36C481.215 425.471 480.934 425.565 480.666 425.658L480.199 425.822C479.685 426.009 479.182 426.248 478.692 426.476C478.201 426.704 477.827 426.885 477.384 427.06C476.657 427.371 475.878 427.543 475.088 427.569Z" fill="#575988"/>
<path opacity="0.1" d="M476.221 369.078C476.221 369.078 478.663 365.573 482.844 365.573C487.026 365.573 488.813 365.1 488.813 365.1C488.813 365.1 486.138 366.689 484.287 366.893C482.435 367.098 476.221 369.078 476.221 369.078Z" fill="black"/>
<path opacity="0.1" d="M477.635 369.902C477.635 369.902 479.842 368.371 481.104 368.313C482.365 368.254 483.44 368.137 483.44 368.137C482.848 368.553 482.193 368.87 481.501 369.078C480.467 369.37 477.635 369.902 477.635 369.902Z" fill="black"/>
<path opacity="0.1" d="M478.131 370.959C478.131 370.959 481.454 371.222 481.483 372.128L478.131 370.959Z" fill="black"/>
<path opacity="0.1" d="M447.137 321.302C447.312 321.331 450.285 318.211 450.489 316.978C450.651 316.198 451.115 315.514 451.78 315.074C451.78 315.074 453.695 315.839 451.99 318.188C450.285 320.536 447.137 321.302 447.137 321.302Z" fill="black"/>
<path opacity="0.1" d="M492.732 220.357C492.054 221.957 491.459 222.109 491.564 223.634C490.775 224.47 489.868 225.184 488.871 225.755C486.769 227.005 484.479 229.453 481.863 229.453C480.11 229.454 478.372 229.125 476.741 228.483C476.321 225.159 475.071 223.716 475.071 223.716C475.071 223.716 495.815 213.095 492.732 220.357Z" fill="black"/>
<path d="M495.909 214.707C495.909 217.48 495.087 220.191 493.547 222.497C492.006 224.803 489.817 226.6 487.256 227.661C484.695 228.722 481.877 229 479.158 228.459C476.439 227.918 473.941 226.583 471.981 224.622C470.021 222.661 468.686 220.163 468.145 217.443C467.604 214.723 467.882 211.904 468.943 209.342C470.003 206.78 471.8 204.59 474.105 203.049C476.41 201.509 479.12 200.686 481.892 200.686C485.61 200.686 489.175 202.164 491.804 204.793C494.432 207.423 495.909 210.989 495.909 214.707Z" fill="#CC818C"/>
<path opacity="0.1" d="M496.82 235.371L492.317 242.077C492.317 242.077 471.041 252.231 475.106 240.325C476.893 235.067 477.103 231.229 476.782 228.571H476.817C477.069 229.452 477.212 230.36 477.243 231.275C477.308 233.11 477.354 235.429 481.916 236.195C489.508 237.468 493.561 232.724 494.274 231.795C495.001 233.069 495.854 234.267 496.82 235.371Z" fill="black"/>
<path opacity="0.1" d="M407.236 206.897L404.415 212.371C403.522 212.294 402.642 212.11 401.793 211.821L401.548 211.529C402.716 211.973 406.576 204.642 406.576 204.642L406.699 204.741C407.038 206.02 407.236 206.897 407.236 206.897Z" fill="black"/>
<path opacity="0.1" d="M492.381 309.483C483.294 313.432 451.862 310.067 451.862 310.067C451.956 309.732 452.008 309.387 452.019 309.039C452.872 307.731 453.509 306.948 453.509 306.948L491.167 305.475C491.167 305.475 491.78 307.152 492.381 309.483Z" fill="black"/>
<path d="M476.794 228.898L472.6 230.691C471.968 230.686 471.35 230.5 470.819 230.155C470.288 229.811 469.867 229.322 469.604 228.746C468.629 226.719 465.189 228.746 465.189 228.746C465.189 228.746 454.677 227.951 450.799 229.914C450.799 229.914 444.532 227.262 443.65 227.087C442.768 226.911 441.443 226.205 440.823 226.38C440.204 226.555 439.416 225.211 438.972 225.322C438.528 225.433 438.353 224.44 436.94 224.084C435.526 223.728 435.001 224.172 433.436 222.583C431.87 220.993 418.958 214.725 418.958 214.725L413.117 209.958L406.938 205.015C406.938 205.015 403.054 212.341 401.904 211.897L413.643 226.029C413.643 226.029 422.117 233.443 427.946 235.826C433.774 238.21 433.33 238.917 433.33 238.917C433.33 238.917 450.986 247.925 453.719 247.75C456.452 247.575 455.938 266.182 454.77 269.185C453.602 272.187 451.774 293.908 451.774 293.908C451.774 293.908 450.022 298.5 451.862 301.678C451.862 301.678 452.3 308.215 451.862 309.36C451.862 309.36 483.487 312.743 492.463 308.741C492.463 308.741 493.789 294.083 492.463 292.232C491.137 290.38 493.701 286.249 493.701 286.249L499.349 273.625L513.12 259.761C513.12 259.761 515.234 248.194 505.791 240.781L499.524 235.213C499.524 235.213 496.02 232.181 494.992 231.988C493.964 231.795 494.344 231.988 494.344 231.988C494.344 231.988 490.256 237.953 481.869 236.539C477.325 235.774 477.278 233.455 477.197 231.626C477.173 230.704 477.037 229.788 476.794 228.898Z" fill="#67647E"/>
<path opacity="0.1" d="M494.052 276.429C494.052 276.429 474.627 277.223 470.749 283.328C470.749 283.328 475.783 280.939 480.28 281.646C484.777 282.353 494.052 276.429 494.052 276.429Z" fill="black"/>
<path opacity="0.1" d="M472.6 297.706C472.6 297.706 481.781 298.325 483.726 296.379C485.671 294.434 485.677 293.289 485.677 293.289L472.6 297.706Z" fill="black"/>
<path opacity="0.1" d="M495.909 257.705C495.909 257.705 488.135 266.889 497.585 270.861L495.909 257.705Z" fill="black"/>
<path opacity="0.1" d="M449.917 239.963C449.917 239.963 452.743 245.729 454.157 246.109L449.917 239.963Z" fill="black"/>
<path opacity="0.1" d="M440.385 237.486C440.385 237.486 447.446 243.848 448.772 244.461C448.772 244.461 441.443 237.486 440.385 237.486Z" fill="black"/>
<path opacity="0.1" d="M468.541 231.398C468.541 231.398 461.743 241.552 466.159 247.756C466.159 247.733 463.688 240.401 468.541 231.398Z" fill="black"/>
<path d="M485.677 308.303L483.598 310.26L483.306 310.529L480.899 312.807C480.73 312.936 480.561 313.064 480.385 313.181C470.591 320.192 468.629 309.536 468.629 309.536C468.629 309.536 464.307 312.363 463.688 310.067C463.069 307.771 473.751 304.506 475.369 304.681C475.51 304.695 475.653 304.695 475.795 304.681C476.567 304.553 477.31 304.29 477.991 303.904L478.464 303.653C479.008 303.346 479.536 303.013 480.047 302.654L485.677 308.303Z" fill="#CC818C"/>
<path opacity="0.1" d="M496.236 214.707C496.241 217.139 495.614 219.531 494.416 221.647C493.218 223.763 491.49 225.531 489.403 226.777C489.207 226.449 489.035 226.107 488.889 225.755C488.387 224.586 488.077 223.324 487.569 222.15C487.013 220.868 486.221 219.703 485.233 218.715C485.065 218.519 484.85 218.37 484.608 218.283C484.381 218.251 484.15 218.267 483.929 218.328C483.708 218.389 483.502 218.495 483.323 218.639C482.729 219.042 482.066 219.333 481.367 219.498C481.017 219.578 480.652 219.567 480.309 219.464C479.965 219.362 479.653 219.172 479.404 218.914C478.855 218.259 478.931 217.301 479.089 216.466C479.434 214.637 480.006 212.838 480.012 210.98C480.018 209.122 479.305 207.124 477.676 206.201C476.251 205.389 474.481 205.617 472.898 205.161C472.653 205.097 472.413 205.015 472.18 204.916C474.126 202.918 476.623 201.546 479.352 200.976C482.082 200.406 484.919 200.662 487.502 201.714C490.085 202.765 492.295 204.563 493.851 206.877C495.407 209.192 496.237 211.918 496.236 214.707Z" fill="black"/>
<path d="M471.222 202.673C470.971 202.807 470.691 203.053 470.767 203.333C470.815 203.467 470.905 203.581 471.024 203.66C471.677 204.188 472.433 204.576 473.243 204.799C474.826 205.232 476.601 205.027 478.026 205.839C479.638 206.756 480.362 208.76 480.362 210.618C480.362 212.476 479.778 214.275 479.445 216.098C479.288 216.939 479.206 217.897 479.755 218.551C480.005 218.809 480.316 218.997 480.66 219.099C481.003 219.202 481.367 219.214 481.717 219.136C482.416 218.974 483.079 218.685 483.674 218.283C483.853 218.138 484.06 218.031 484.282 217.969C484.504 217.907 484.736 217.89 484.964 217.921C485.204 218.012 485.419 218.16 485.589 218.353C486.578 219.342 487.37 220.51 487.925 221.794C488.439 222.962 488.743 224.218 489.245 225.398C489.683 226.602 490.504 227.628 491.581 228.319C492.703 228.939 494.256 228.904 495.12 227.946C495.985 226.987 495.915 225.673 496.324 224.522C497.024 222.518 498.981 221.262 500.207 219.533C501.58 217.588 501.959 215.146 502.333 212.791C502.499 212.05 502.511 211.282 502.368 210.536C502.208 210.042 502.001 209.565 501.749 209.111C500.383 206.283 500.412 202.725 498.245 200.47C496.61 198.776 494.128 198.262 491.792 197.97C489.455 197.678 487.003 197.514 484.999 196.282C484.438 195.857 483.818 195.514 483.16 195.265C482.826 195.148 482.462 195.151 482.131 195.275C481.8 195.399 481.524 195.635 481.349 195.943C481.308 196.122 481.226 196.29 481.11 196.433C481.005 196.494 480.888 196.529 480.767 196.536C480.646 196.543 480.526 196.522 480.415 196.474L477.308 195.639L477.664 197.205C476.535 197.252 475.409 197.053 474.364 196.62C474.306 197.508 475.304 198.081 475.614 198.91C475.726 199.288 475.73 199.689 475.627 200.068C475.524 200.448 475.317 200.791 475.03 201.06C473.903 202.194 472.495 201.978 471.222 202.673Z" fill="#585268"/>
<path opacity="0.1" d="M458.63 413.641L458.502 415.049H458.449C453.386 417.877 442.914 409.99 442.914 409.99L444.006 408.897C444.186 409.096 444.321 409.331 444.403 409.585C444.486 409.84 444.514 410.109 444.485 410.376L446.623 410.492L449.181 413.256C449.181 413.256 456.102 414.056 457.976 413.612L458.63 413.641Z" fill="black"/>
<path d="M457.743 421.318C454.449 422.054 442.914 422.001 442.914 422.001L436.443 423.024C436.443 423.024 425.347 424.087 424.114 420.64C422.882 417.193 425.084 417.409 425.084 417.409H425.172L429.791 417.035C429.791 417.035 435.631 414.769 437.798 413.209C439.494 411.888 441.096 410.452 442.593 408.909C442.593 408.909 444.52 408.535 444.485 410.767L446.623 410.884L449.181 413.653C449.181 413.653 456.102 414.453 457.976 414.003H458.63L458.333 417.421L458.414 417.52C458.858 418.058 460.686 420.663 457.743 421.318Z" fill="#FF748F"/>
<path d="M445.799 413.075C445.977 413.075 446.121 412.931 446.121 412.753C446.121 412.576 445.977 412.432 445.799 412.432C445.622 412.432 445.478 412.576 445.478 412.753C445.478 412.931 445.622 413.075 445.799 413.075Z" fill="#575988"/>
<path d="M437.5 416.673C437.678 416.673 437.822 416.529 437.822 416.352C437.822 416.175 437.678 416.031 437.5 416.031C437.323 416.031 437.179 416.175 437.179 416.352C437.179 416.529 437.323 416.673 437.5 416.673Z" fill="#575988"/>
<path d="M433.225 417.97C433.403 417.97 433.547 417.826 433.547 417.649C433.547 417.471 433.403 417.328 433.225 417.328C433.048 417.328 432.904 417.471 432.904 417.649C432.904 417.826 433.048 417.97 433.225 417.97Z" fill="#575988"/>
<path d="M439.679 415.984C439.856 415.984 440 415.84 440 415.663C440 415.485 439.856 415.341 439.679 415.341C439.501 415.341 439.358 415.485 439.358 415.663C439.358 415.84 439.501 415.984 439.679 415.984Z" fill="#575988"/>
<path d="M435.357 417.322C435.534 417.322 435.678 417.178 435.678 417C435.678 416.823 435.534 416.679 435.357 416.679C435.18 416.679 435.036 416.823 435.036 417C435.036 417.178 435.18 417.322 435.357 417.322Z" fill="#575988"/>
<path d="M441.881 414.962C442.058 414.962 442.202 414.818 442.202 414.64C442.202 414.463 442.058 414.319 441.881 414.319C441.703 414.319 441.559 414.463 441.559 414.64C441.559 414.818 441.703 414.962 441.881 414.962Z" fill="#575988"/>
<path d="M444.059 414.015C444.236 414.015 444.38 413.871 444.38 413.694C444.38 413.516 444.236 413.373 444.059 413.373C443.882 413.373 443.738 413.516 443.738 413.694C443.738 413.871 443.882 414.015 444.059 414.015Z" fill="#575988"/>
<path d="M457.743 421.318C454.449 422.054 442.914 422.001 442.914 422.001L436.443 423.024C436.443 423.024 425.347 424.087 424.114 420.64C422.882 417.193 425.084 417.409 425.084 417.409H425.172C425.878 418.327 427.297 419.366 430.083 419.419L438.061 419.74L446.325 419.156C446.325 419.156 454.069 418.928 455.331 418.66C456.39 418.374 457.422 417.995 458.414 417.526C458.858 418.058 460.686 420.663 457.743 421.318Z" fill="#DCE6F2"/>
<path opacity="0.5" d="M437.068 422.247C436.627 422.253 436.186 422.198 435.76 422.083L435.853 421.744C436.942 421.978 438.072 421.928 439.136 421.598C439.527 421.493 439.912 421.382 440.304 421.265C441.01 421.041 441.73 420.859 442.459 420.722C443.636 420.569 444.825 420.534 446.01 420.617H446.261C449.799 420.803 453.347 420.644 456.855 420.143C457.687 420.086 458.48 419.767 459.121 419.232L459.372 419.483C458.68 420.072 457.819 420.425 456.913 420.494C453.382 420.998 449.811 421.156 446.249 420.967H445.992C444.823 420.885 443.65 420.921 442.488 421.072C441.775 421.205 441.071 421.383 440.38 421.604C439.988 421.721 439.597 421.838 439.212 421.937C438.512 422.127 437.793 422.231 437.068 422.247Z" fill="#575988"/>
<path opacity="0.1" d="M485.677 308.303L483.598 310.26L478.435 303.647C478.979 303.341 479.507 303.007 480.018 302.648L485.677 308.303Z" fill="black"/>
<path d="M509.085 254.118L513.173 259.767V265.685C513.173 265.685 515.024 271.954 513.173 278.222L513.371 283.696C513.371 283.696 511.403 288.726 512.11 289.965C512.11 289.965 511.759 293.675 506.994 296.233C502.228 298.792 496.82 304.856 496.82 304.856C496.82 304.856 494.788 308.741 489.315 307.859L484.106 310.067L478.108 302.385L486.226 297.968C486.226 297.968 489.052 294.177 490.729 294.352L497.614 286.314C497.614 286.314 497.789 283.755 499.553 283.755C499.553 283.755 496.288 281.108 497.433 279.519C498.578 277.93 497.614 270.861 497.614 270.861L509.085 254.118Z" fill="#67647E"/>
<path opacity="0.1" d="M501.492 279.87C501.492 279.87 510.761 279.694 511.905 282.078C513.05 284.462 504.29 278.544 501.492 279.87Z" fill="black"/>
<path opacity="0.1" d="M483.347 310.067C483.348 310.222 483.334 310.377 483.306 310.529C483.199 311.24 482.85 311.892 482.318 312.375C481.786 312.859 481.103 313.143 480.385 313.181H480.222C479.395 313.181 478.602 312.852 478.017 312.267C477.432 311.682 477.103 310.889 477.103 310.062C477.104 309.717 477.163 309.375 477.278 309.051C475.807 307.882 475.725 305.733 475.766 304.669C476.538 304.541 477.281 304.278 477.962 303.892C478.346 304.996 478.862 306.049 479.498 307.029C479.735 306.973 479.978 306.944 480.222 306.942C480.632 306.942 481.039 307.023 481.418 307.18C481.797 307.337 482.141 307.567 482.431 307.857C482.722 308.148 482.952 308.492 483.109 308.871C483.266 309.25 483.347 309.657 483.347 310.067Z" fill="black"/>
<path d="M478.242 303.191C478.242 303.191 476.151 303.664 476.151 304.044C476.151 304.424 475.678 307.871 477.973 309.302C480.269 310.733 480.035 307.327 480.035 307.327C480.035 307.327 478.061 304.301 478.242 303.191Z" fill="#575988"/>
<path d="M480.572 313.187C482.295 313.187 483.691 311.79 483.691 310.067C483.691 308.344 482.295 306.948 480.572 306.948C478.85 306.948 477.454 308.344 477.454 310.067C477.454 311.79 478.85 313.187 480.572 313.187Z" fill="#E4AAB4"/>
<path d="M480.572 312.743C482.05 312.743 483.247 311.545 483.247 310.067C483.247 308.59 482.05 307.392 480.572 307.392C479.095 307.392 477.898 308.59 477.898 310.067C477.898 311.545 479.095 312.743 480.572 312.743Z" fill="#DCE6F2"/>
<path opacity="0.1" d="M468.425 311.277C468.425 311.277 475.018 316.745 483.487 313.275V315.927C483.487 315.927 477.839 319.812 472.723 317.458C467.607 315.103 468.425 311.277 468.425 311.277Z" fill="black"/>
<path opacity="0.1" d="M468.425 310.57C468.425 310.57 475.018 316.044 483.487 312.568V315.22C483.487 315.22 477.839 319.105 472.723 316.751C467.607 314.396 468.425 310.57 468.425 310.57Z" fill="black"/>
<path d="M468.425 310.57C468.425 310.57 475.018 316.044 483.487 312.568V315.22C483.487 315.22 477.839 319.105 472.723 316.751C467.607 314.396 468.425 310.57 468.425 310.57Z" fill="#444053"/>
<path opacity="0.05" d="M468.6 310.57C468.6 310.57 475.193 316.044 483.668 312.568V315.22C483.668 315.22 478.02 319.105 472.898 316.751C467.776 314.396 468.6 310.57 468.6 310.57Z" fill="black"/>
<path opacity="0.1" d="M447.709 408.897C447.709 408.897 456.54 410.522 457.83 410.872C459.121 411.223 457.48 411.842 457.48 411.842C457.48 411.842 449.42 410.399 447.709 408.897Z" fill="black"/>
<path opacity="0.1" d="M447.505 404.218C447.651 404.218 453.509 402.571 454.77 399.749L447.505 404.218Z" fill="black"/>
<path opacity="0.1" d="M456.049 370.433C456.049 370.433 458.42 373.553 459.95 373.465C461.481 373.378 457.439 370.317 456.049 370.433Z" fill="black"/>
<path opacity="0.1" d="M457.363 375.633C457.363 375.633 458.362 377.835 459.834 377.128L457.363 375.633Z" fill="black"/>
<path opacity="0.05" d="M462.946 327.144L469.207 343.659C469.207 343.659 470.089 333.033 468.226 329.854C467.697 328.946 466.918 328.207 465.982 327.727C465.047 327.247 463.993 327.044 462.946 327.144Z" fill="black"/>
<g opacity="0.1">
<path opacity="0.1" d="M478.33 196.282L478.277 196.042L477.273 195.773L477.384 196.264C477.698 196.287 478.014 196.293 478.33 196.282Z" fill="black"/>
<path opacity="0.1" d="M475.567 200.266L475.672 200.172C475.96 199.904 476.167 199.56 476.27 199.181C476.374 198.801 476.369 198.4 476.256 198.022C476.135 197.729 475.965 197.459 475.754 197.222C475.259 197.125 474.775 196.982 474.306 196.796C474.247 197.678 475.24 198.25 475.55 199.08C475.693 199.461 475.699 199.881 475.567 200.266Z" fill="black"/>
<path opacity="0.1" d="M492.265 227.414C491.176 226.728 490.344 225.701 489.899 224.493C489.403 223.324 489.093 222.063 488.585 220.894C488.03 219.61 487.238 218.443 486.249 217.453C486.08 217.259 485.866 217.11 485.624 217.021C485.397 216.991 485.166 217.007 484.945 217.068C484.725 217.129 484.519 217.235 484.339 217.377C483.745 217.78 483.082 218.071 482.383 218.236C482.033 218.315 481.669 218.303 481.325 218.201C480.982 218.098 480.67 217.909 480.42 217.652C479.872 216.998 479.947 216.034 480.105 215.198C480.45 213.375 481.022 211.57 481.028 209.718C481.034 207.866 480.321 205.857 478.692 204.94C477.267 204.127 475.497 204.355 473.914 203.9C473.103 203.676 472.345 203.289 471.689 202.76C471.648 202.726 471.609 202.689 471.573 202.649C471.44 202.7 471.311 202.761 471.187 202.831C470.93 202.965 470.656 203.21 470.726 203.491C470.778 203.624 470.87 203.738 470.988 203.818C471.642 204.347 472.397 204.735 473.208 204.957C474.79 205.389 476.56 205.185 477.985 205.997C479.597 206.914 480.321 208.918 480.321 210.776C480.321 212.634 479.737 214.433 479.398 216.256C479.241 217.097 479.165 218.055 479.714 218.709C479.963 218.967 480.275 219.156 480.619 219.258C480.962 219.36 481.326 219.373 481.676 219.293C482.375 219.132 483.038 218.843 483.633 218.441C483.811 218.296 484.017 218.189 484.238 218.127C484.459 218.065 484.69 218.048 484.917 218.078C485.158 218.168 485.373 218.317 485.542 218.511C486.529 219.502 487.321 220.669 487.879 221.952C488.392 223.12 488.696 224.376 489.198 225.556C489.636 226.76 490.457 227.786 491.535 228.477C492.65 229.096 494.209 229.061 495.039 228.103C495.268 227.843 495.447 227.542 495.564 227.215C495.093 227.566 494.53 227.772 493.944 227.808C493.358 227.843 492.774 227.706 492.265 227.414Z" fill="black"/>
<path opacity="0.1" d="M497.311 222.921C498.192 221.806 499.355 220.853 500.184 219.685C500.348 219.451 500.499 219.206 500.639 218.96C499.571 220.322 498.105 221.402 497.311 222.921Z" fill="black"/>
</g>
</g>
<defs>
<linearGradient id="paint0_linear" x1="454.116" y1="428.842" x2="454.116" y2="193.185" gradientUnits="userSpaceOnUse">
<stop stop-color="#808080" stop-opacity="0.25"/>
<stop offset="0.54" stop-color="#808080" stop-opacity="0.12"/>
<stop offset="1" stop-color="#808080" stop-opacity="0.1"/>
</linearGradient>
<clipPath id="clip0">
<rect width="600" height="458" fill="white"/>
</clipPath>
</defs>
</svg>
