<svg width="48" height="48" viewBox="0 0 48 48" fill="none" xmlns="http://www.w3.org/2000/svg">
<path d="M20.7489 36.1895L11.8109 27.2515C11.1729 26.6136 11.0797 25.6118 11.5889 24.8671L14.7236 20.2825C15.2329 19.5378 15.1395 18.536 14.5016 17.8981L7.3184 10.7149C6.58612 9.98258 5.39877 9.98258 4.66649 10.7149C-0.313228 15.6946 -0.313228 23.7684 4.66649 28.748L19.2522 43.3338C24.2319 48.3135 32.3058 48.3135 37.2854 43.3338C38.0177 42.6015 38.0177 41.4141 37.2854 40.6819L30.1022 33.4986C29.4642 32.8607 28.4625 32.7675 27.7177 33.2766L23.1332 36.4114C22.3885 36.9208 21.3868 36.8275 20.7489 36.1895Z" fill="#F97026"/>
<path d="M37.2855 40.682L30.1023 33.4988C29.4643 32.8609 28.4626 32.7677 27.7179 33.2768L24.1901 35.689L34.1406 45.6395C35.2727 45.052 36.3355 44.2839 37.2854 43.334C38.0178 42.6018 38.0178 41.4143 37.2855 40.682Z" fill="#F3915C"/>
<path d="M12.3116 23.8104L14.7237 20.2826C15.233 19.5379 15.1396 18.5361 14.5017 17.8982L7.31852 10.715C6.58624 9.98267 5.3989 9.98267 4.66662 10.715C3.71674 11.6648 2.94855 12.7276 2.36102 13.8598L12.3116 23.8104Z" fill="#F3915C"/>
<path d="M42.9833 8.36868H30.7007C28.4481 8.36868 26.6221 10.1947 26.6221 12.4473V25.1747C26.6221 27.4272 28.4481 29.2533 30.7007 29.2533H36.3563V32.8866L40.0128 29.2533H42.9832C45.2358 29.2533 47.0618 27.4272 47.0618 25.1747V12.4473C47.0619 10.1947 45.2359 8.36868 42.9833 8.36868Z" fill="#91E696"/>
<path d="M41.5124 22.2004L39.7439 21.8706L34.327 21.8718L32.5652 22.2004C31.1277 22.4684 30.0856 23.723 30.0856 25.1852V29.201H36.2854V32.8867L40.3219 29.201H43.6009C43.7328 29.201 43.863 29.1941 43.9919 29.183V25.1852C43.992 23.723 42.9499 22.4685 41.5124 22.2004Z" fill="white"/>
<path d="M37.0388 14.3852C35.2103 14.3852 33.7278 15.8677 33.7278 17.6963V19.8509C33.7278 21.6795 35.2103 23.162 37.0388 23.162C38.8674 23.162 40.3499 21.6795 40.3499 19.8509V17.6963C40.3499 15.8677 38.8674 14.3852 37.0388 14.3852Z" fill="#FFCDAC"/>
<path d="M12.0973 1.87519C17.3935 1.87519 21.7023 6.29578 21.7023 11.7297C21.7023 12.2475 22.1222 12.6673 22.6399 12.6673C23.1576 12.6673 23.5775 12.2474 23.5775 11.7297C23.5776 5.26191 18.4275 0 12.0973 0C11.5795 0 11.1597 0.419813 11.1597 0.937594C11.1597 1.45537 11.5795 1.87519 12.0973 1.87519Z" fill="black"/>
<path d="M12.0942 6.32343C14.9944 6.32343 17.3538 8.74865 17.3538 11.7296C17.3538 12.2474 17.7736 12.6672 18.2914 12.6672C18.8091 12.6672 19.229 12.2473 19.229 11.7296C19.229 7.71459 16.0282 4.44815 12.0942 4.44815C11.5764 4.44815 11.1566 4.86796 11.1566 5.38574C11.1566 5.90352 11.5765 6.32343 12.0942 6.32343Z" fill="black"/>
<path d="M11.1748 9.48337C11.1748 10.0012 11.5947 10.421 12.1124 10.421C12.7899 10.421 13.341 10.9951 13.341 11.7008C13.341 12.2186 13.7609 12.6384 14.2786 12.6384C14.7964 12.6384 15.2162 12.2185 15.2162 11.7008C15.2162 9.96112 13.8237 8.54578 12.1123 8.54578C11.5946 8.54578 11.1748 8.96559 11.1748 9.48337Z" fill="black"/>
<path d="M42.9833 7.43109H40.905C40.3872 7.43109 39.9674 7.8509 39.9674 8.36869C39.9674 8.88647 40.3872 9.30628 40.905 9.30628H42.9833C44.7153 9.30628 46.1243 10.7153 46.1243 12.4473V25.1747C46.1243 26.1719 45.6566 27.0613 44.9298 27.6371V25.1852C44.9298 23.2723 43.5649 21.6293 41.6844 21.2786L41.0783 21.1657C41.2135 20.7514 41.2875 20.3097 41.2875 19.8508V17.6962C41.2875 15.3535 39.3815 13.4476 37.0388 13.4476C34.6961 13.4476 32.7903 15.3535 32.7903 17.6962V19.8508C32.7903 20.3097 32.8643 20.7513 32.9994 21.1657L32.3933 21.2786C30.5128 21.6292 29.148 23.2722 29.148 25.1852V27.9033C28.2004 27.3619 27.5598 26.342 27.5598 25.1747V12.4473C27.5598 10.7153 28.9688 9.30628 30.7008 9.30628H32.9354C33.4532 9.30628 33.873 8.88637 33.873 8.36869C33.873 7.8509 33.4531 7.43109 32.9354 7.43109H30.7008C27.9349 7.43109 25.6846 9.68137 25.6846 12.4473V25.1747C25.6846 27.9406 27.9349 30.1909 30.7008 30.1909H35.4188V32.8867C35.4188 33.2653 35.6466 33.6069 35.9962 33.7522C36.1127 33.8007 36.2349 33.8242 36.3562 33.8242C36.5992 33.8242 36.8382 33.7297 37.0174 33.5518L40.3995 30.1909H42.9833C45.7492 30.1909 47.9995 27.9406 47.9995 25.1747V12.4473C47.9995 9.68128 45.7492 7.43109 42.9833 7.43109ZM34.6654 17.6962C34.6654 16.3875 35.73 15.3228 37.0387 15.3228C38.3475 15.3228 39.4122 16.3875 39.4122 17.6962V19.8508C39.4122 21.1596 38.3475 22.2243 37.0387 22.2243C35.73 22.2243 34.6654 21.1596 34.6654 19.8508V17.6962ZM40.0128 28.3157C39.7651 28.3157 39.5275 28.4137 39.3518 28.5881L37.2939 30.6332V29.2532C37.2939 28.7354 36.874 28.3156 36.3563 28.3156H31.0232V25.1851C31.0232 24.1749 31.744 23.3072 32.737 23.1219L34.0588 22.8755C34.8262 23.6317 35.8787 24.0994 37.0387 24.0994C38.1988 24.0994 39.2513 23.6316 40.0188 22.8754L41.3406 23.1218C42.3337 23.3071 43.0545 24.1747 43.0545 25.185V28.3136C43.0308 28.3142 43.0072 28.3154 42.9833 28.3154H40.013V28.3157H40.0128Z" fill="black"/>
<path d="M36.4669 9.30668C36.7135 9.30668 36.9555 9.20636 37.1298 9.03199C37.3041 8.85668 37.4045 8.61574 37.4045 8.36908C37.4045 8.12158 37.3042 7.88055 37.1298 7.70618C36.9555 7.53086 36.7136 7.43149 36.4669 7.43149C36.2204 7.43149 35.9784 7.53086 35.804 7.70618C35.6297 7.87971 35.5294 8.12158 35.5294 8.36908C35.5294 8.61564 35.6296 8.85761 35.804 9.03199C35.9785 9.20627 36.2204 9.30668 36.4669 9.30668Z" fill="black"/>
<path d="M16.7632 31.2663C16.5166 31.2663 16.2746 31.3666 16.1003 31.541C15.926 31.7154 15.8256 31.9573 15.8256 32.2039C15.8256 32.4514 15.9259 32.6924 16.1003 32.8668C16.2756 33.0421 16.5165 33.1423 16.7632 33.1423C17.0097 33.1423 17.2517 33.0421 17.4261 32.8668C17.6014 32.6924 17.7007 32.4514 17.7007 32.2039C17.7007 31.9573 17.6014 31.7154 17.4261 31.541C17.2516 31.3666 17.0107 31.2663 16.7632 31.2663Z" fill="black"/>
<path d="M30.7653 32.8358C29.809 31.8796 28.3047 31.7397 27.1887 32.5029L22.6042 35.6377C22.2321 35.8921 21.7309 35.8455 21.412 35.5266L19.896 34.0105C19.53 33.6446 18.9365 33.6445 18.5699 34.0105C18.2038 34.3766 18.2038 34.9702 18.5699 35.3366L20.0859 36.8527C21.0422 37.8089 22.5463 37.949 23.6625 37.1856L28.2471 34.0509C28.619 33.7966 29.1204 33.8431 29.4392 34.1619L36.6224 41.3451C36.988 41.7106 36.9879 42.3055 36.6223 42.6712C32.0162 47.2774 24.5214 47.2774 19.9152 42.6712L5.32951 28.0852C3.09807 25.8539 1.86939 22.8873 1.86939 19.7316C1.86939 16.576 3.09817 13.6093 5.3296 11.3779C5.5067 11.2008 5.74201 11.1034 5.99251 11.1034C6.24301 11.1034 6.47851 11.2009 6.65551 11.3779L13.8386 18.5612C14.1573 18.8798 14.204 19.3813 13.9497 19.7533L10.8151 24.3379C10.0517 25.4539 10.1918 26.9581 11.1479 27.9144L13.4268 30.1933C13.793 30.5593 14.3865 30.5593 14.7529 30.1933C15.119 29.8272 15.119 29.2335 14.7529 28.8672L12.474 26.5883C12.1554 26.2697 12.1087 25.7683 12.363 25.3963L15.4977 20.8117C16.261 19.6955 16.1209 18.1913 15.1647 17.2352L7.98161 10.0519C6.88492 8.95526 5.10039 8.95526 4.00351 10.0519C-1.33377 15.3893 -1.33377 24.0739 4.00351 29.4112L18.5893 43.9969C21.258 46.6656 24.7634 48 28.2688 48C31.7743 47.9999 35.2797 46.6655 37.9484 43.9969C39.045 42.9003 39.045 41.1158 37.9484 40.0189L30.7653 32.8358Z" fill="black"/>
<path d="M11.9677 24.6556C11.7277 24.6556 11.4878 24.564 11.3047 24.381L5.62088 18.6973C5.25479 18.3312 5.25479 17.7375 5.62088 17.3712C5.98707 17.0052 6.5806 17.0052 6.94698 17.3712L12.6307 23.0549C12.9968 23.421 12.9968 24.0147 12.6307 24.381C12.4476 24.564 12.2076 24.6556 11.9677 24.6556Z" fill="black"/>
<path d="M33.7208 46.4087C33.4808 46.4087 33.2409 46.3171 33.0578 46.1341L27.0775 40.1539C26.7115 39.7878 26.7115 39.1941 27.0775 38.8278C27.4437 38.4618 28.0373 38.4618 28.4036 38.8278L34.3838 44.808C34.7499 45.1741 34.7499 45.7678 34.3838 46.1341C34.2006 46.3171 33.9607 46.4087 33.7208 46.4087Z" fill="black"/>
</svg>
